<?xml version="1.0" standalone="no"?>
<!DOCTYPE svg PUBLIC "-//W3C//DTD SVG 20010904//EN"
 "http://www.w3.org/TR/2001/REC-SVG-20010904/DTD/svg10.dtd">
<svg version="1.0" xmlns="http://www.w3.org/2000/svg"
 width="512.000000pt" height="512.000000pt" viewBox="0 0 512.000000 512.000000"
 preserveAspectRatio="xMidYMid meet">
<metadata>
Created by potrace 1.14, written by Peter Selinger 2001-2017
</metadata>
<g transform="translate(0.000000,512.000000) scale(0.100000,-0.100000)"
fill="#000000" stroke="none">
<path d="M0 2560 l0 -2560 2560 0 2560 0 0 2560 0 2560 -2560 0 -2560 0 0
-2560z m1997 1432 c207 -54 356 -173 450 -357 84 -164 113 -307 113 -557 0
-264 -42 -502 -113 -647 -31 -63 -138 -186 -197 -225 l-25 -16 183 -543 c100
-298 182 -545 182 -549 0 -5 -79 -8 -175 -8 -156 0 -175 2 -183 17 -5 10 -83
233 -173 497 l-163 479 -90 -7 c-49 -3 -239 -6 -423 -6 l-333 0 0 -490 0 -490
-172 2 -173 3 -3 1463 -2 1463 607 -4 c586 -3 611 -4 690 -25z m2423 -137 l0
-165 -555 0 -555 0 0 -410 0 -410 395 0 394 0 -45 -127 c-24 -71 -51 -147 -60
-170 l-16 -43 -334 0 -334 0 0 -555 0 -555 550 0 550 0 0 -165 0 -165 -725 0
-725 0 0 1465 0 1465 730 0 730 0 0 -165z"/>
<path d="M1050 3050 l0 -631 428 3 c417 3 428 4 483 26 104 41 192 160 225
298 37 163 37 476 -2 611 -39 139 -130 250 -242 295 -56 23 -65 23 -474 26
l-418 3 0 -631z"/>
</g>
</svg>
